<?xml version="1.0" encoding="UTF-8" standalone="no"?>
<!-- Creator: CorelDRAW X7 -->

<svg
   xmlns:osb="http://www.openswatchbook.org/uri/2009/osb"
   xmlns:dc="http://purl.org/dc/elements/1.1/"
   xmlns:cc="http://creativecommons.org/ns#"
   xmlns:rdf="http://www.w3.org/1999/02/22-rdf-syntax-ns#"
   xmlns:svg="http://www.w3.org/2000/svg"
   xmlns="http://www.w3.org/2000/svg"
   xmlns:xlink="http://www.w3.org/1999/xlink"
   xmlns:sodipodi="http://sodipodi.sourceforge.net/DTD/sodipodi-0.dtd"
   xmlns:inkscape="http://www.inkscape.org/namespaces/inkscape"
   xml:space="preserve"
   width="750"
   height="200"
   version="1.1"
   style="fill-rule:evenodd"
   viewBox="0 0 21166.667 5644.4445"
   id="svg2"
   inkscape:version="0.48.4 r9939"
   sodipodi:docname="campus_footer.svg"><metadata
     id="metadata299"><rdf:RDF><cc:Work
         rdf:about=""><dc:format>image/svg+xml</dc:format><dc:type
           rdf:resource="http://purl.org/dc/dcmitype/StillImage" /><dc:title /></cc:Work></rdf:RDF></metadata><sodipodi:namedview
     pagecolor="#002248"
     bordercolor="#666666"
     borderopacity="1"
     objecttolerance="10"
     gridtolerance="10"
     guidetolerance="10"
     inkscape:pageopacity="1"
     inkscape:pageshadow="2"
     inkscape:window-width="1918"
     inkscape:window-height="1150"
     id="namedview297"
     showgrid="false"
     inkscape:zoom="1.1676768"
     inkscape:cx="286.89447"
     inkscape:cy="279.73183"
     inkscape:window-x="0"
     inkscape:window-y="0"
     inkscape:window-maximized="1"
     inkscape:current-layer="Слой_x0020_1" /><defs
     id="defs4"><linearGradient
       id="linearGradient4047"
       osb:paint="solid"><stop
         style="stop-color:#000000;stop-opacity:1;"
         offset="0"
         id="stop4049" /></linearGradient><style
       type="text/css"
       id="style6">
    .fil0 {fill:#FEFEFE}
   </style><linearGradient
       inkscape:collect="always"
       xlink:href="#linearGradient4047"
       id="linearGradient4051"
       x1="3907"
       y1="10794.992"
       x2="24033.316"
       y2="10794.992"
       gradientUnits="userSpaceOnUse" /></defs><g
     id="Слой_x0020_1"
     transform="translate(-3439.8887,-8008.9589)"
     style="fill:#ffffff;fill-opacity:0.54807693"><metadata
       id="CorelCorpID_0Corel-Layer"
       style="fill:url(#linearGradient4051);fill-opacity:1" /><g
       id="_727443328"
       style="fill:#ffffff;fill-opacity:0.20192307"><path
         class="fil0"
         d="m 14725,12055 c 10,0 19,3 27,7 -6,3 -15,8 -26,16 -12,-7 -22,-11 -29,-14 8,-6 18,-9 28,-9 z m 199,52 0,0 c 0,18 14,32 32,32 18,0 32,-14 32,-32 l 0,0 0,-129 c 0,-8 -3,-16 -9,-22 -7,25 -29,44 -55,48 l 0,103 z m -123,-144 c 5,-10 16,-17 28,-17 18,0 32,14 32,32 l 0,0 0,59 c -13,-30 -34,-55 -60,-74 z m -101,-17 c 89,0 161,72 161,161 0,1 0,2 0,4 l 0,0 0,0 c 0,51 42,93 93,93 52,0 93,-42 93,-93 l 0,0 0,-127 0,-6 0,0 c 0,-18 15,-32 33,-32 17,0 32,14 32,32 l 0,0 0,133 0,0 c 0,87 -71,157 -158,157 -51,0 -97,-25 -126,-63 -29,38 -76,63 -128,63 l 0,0 0,0 -116,0 c 24,-14 42,-37 50,-64 l 66,0 0,0 c 53,0 96,-43 97,-96 0,-1 0,-3 0,-5 -2,-51 -45,-93 -97,-93 l 0,0 -129,0 0,0 -78,0 0,0 c -18,0 -33,-14 -33,-32 0,-18 15,-32 33,-32 l 0,0 207,0 0,0 0,0 z m -315,193 c -53,0 -96,-43 -96,-96 0,-54 43,-97 96,-97 l 0,0 73,0 c -8,8 -13,20 -13,32 0,13 5,24 13,32 l -73,0 0,0 c -18,0 -32,15 -32,33 0,17 14,32 32,32 l 0,0 141,0 0,0 c 53,0 97,43 97,97 0,53 -44,96 -97,96 l 0,0 -205,0 0,0 c -18,0 -32,-14 -32,-32 0,-18 14,-32 32,-32 l 205,0 0,0 c 18,0 32,-15 32,-32 0,-18 -14,-33 -32,-33 l 0,0 -141,0 z m 340,-60 c -4,3 -8,6 -12,9 -12,-5 -23,-9 -30,-10 4,-6 8,-10 13,-14 10,4 20,9 29,15 z m -13,11 c -3,2 -6,5 -8,7 -10,-4 -19,-8 -26,-10 1,-3 3,-6 5,-9 10,3 20,7 29,12 z m -10,9 c -2,2 -3,4 -5,6 -1,1 -2,2 -3,3 -7,-2 -14,-4 -20,-5 0,-5 2,-10 3,-15 9,3 17,6 25,11 z m -9,11 c -6,7 -11,14 -14,19 -3,-6 -5,-14 -5,-22 0,-1 0,-2 0,-3 6,1 13,3 19,6 z m 59,-47 c 4,2 7,4 10,7 -6,3 -15,8 -24,15 -4,-2 -7,-4 -10,-7 7,-5 15,-11 24,-15 z m -16,23 c -3,3 -7,6 -10,9 -4,-2 -7,-4 -11,-6 4,-3 7,-6 11,-9 4,2 7,4 10,6 z m -12,10 c -3,3 -5,5 -8,8 -3,-2 -7,-4 -10,-6 2,-2 5,-5 8,-7 3,1 7,3 10,5 z m -9,10 c -2,2 -4,4 -6,6 l -2,2 c -3,-2 -7,-3 -11,-5 3,-3 6,-6 9,-9 3,2 6,4 10,6 z m -9,10 c -8,10 -15,19 -19,26 -3,-3 -5,-7 -7,-11 5,-7 10,-14 15,-20 4,1 7,3 11,5 z m 56,-45 c 3,3 6,6 8,10 -6,3 -13,7 -21,12 -3,-2 -7,-5 -10,-7 7,-6 15,-11 23,-15 z m -15,24 c -4,2 -7,4 -10,7 -3,-2 -6,-4 -9,-6 3,-3 6,-6 9,-9 4,3 7,5 10,8 z m -12,8 c -3,3 -6,5 -8,7 -3,-1 -6,-3 -9,-5 3,-2 5,-5 8,-7 3,1 6,3 9,5 z m -10,9 c -2,2 -4,4 -6,6 l -1,1 c -3,-2 -6,-3 -8,-4 2,-3 4,-6 7,-8 2,2 5,3 8,5 z m -9,9 c -10,11 -18,21 -22,28 -2,-2 -4,-4 -6,-6 7,-9 14,-18 20,-26 3,1 6,2 8,4 z m 55,-39 c 1,3 3,6 4,10 -5,3 -11,6 -17,9 -1,-1 -2,-2 -4,-3 -1,-1 -3,-3 -4,-4 6,-4 13,-9 21,-12 z m -15,21 c -3,2 -6,4 -9,6 -2,-1 -4,-2 -6,-4 -1,-1 -2,-1 -3,-2 4,-3 7,-5 10,-7 3,2 5,4 8,7 z m -11,8 c -3,2 -6,4 -9,7 -1,-2 -3,-3 -5,-4 -1,-1 -1,-2 -2,-2 2,-3 5,-5 7,-7 3,2 6,4 9,6 z m -11,8 c -1,2 -3,3 -5,5 l -1,1 c -1,-1 -3,-2 -5,-3 -1,-1 -2,-1 -3,-2 2,-2 5,-4 7,-6 2,1 5,3 7,5 z m -8,8 c -10,11 -18,21 -22,27 -3,-1 -6,-3 -9,-5 8,-10 16,-19 23,-27 3,2 6,3 8,5 z m 49,-34 c 1,4 2,9 2,14 0,4 0,9 -1,13 -5,-5 -10,-11 -17,-17 5,-4 11,-7 16,-10 z m 0,29 c -1,3 -2,7 -4,10 -4,-6 -12,-13 -23,-22 3,-2 6,-4 9,-6 6,6 12,12 18,18 z m -5,11 c -2,3 -4,7 -7,10 -4,-5 -13,-14 -25,-24 3,-2 6,-5 8,-7 8,6 16,13 24,21 z m -8,10 c -1,2 -2,3 -4,4 -4,-4 -14,-12 -27,-21 1,-2 3,-3 5,-5 9,6 18,14 26,22 z m -5,5 c -8,7 -19,11 -32,11 -7,0 -14,-1 -20,-4 8,-10 16,-19 24,-27 9,6 19,13 28,20 z"
         id="path11"
         inkscape:connector-curvature="0"
         style="fill:#ffffff;fill-opacity:0.20192307" /><path
         class="fil0"
         d="m 17800,10996 c 17,0 213,2 213,2 0,70 0,226 3,229 -12,-3 -200,0 -218,-3 2,-7 2,-228 2,-228 z m 1,-533 c 99,3 139,4 246,5 -1,68 0,234 0,234 -107,-8 -144,-8 -246,-14 2,-74 0,-145 0,-225 z m -7535,-1408 -213,15 40,-71 197,-13 c -7,30 -13,47 -24,69 z m 579,-42 c -4,1 -249,22 -256,23 0,0 30,-81 30,-81 80,-7 238,-17 245,-17 l -19,75 z m 38,-5 c 8,-21 22,-70 22,-70 0,0 210,-16 240,-18 -8,19 -23,68 -23,68 -78,6 -160,14 -239,20 z m 572,-35 28,-80 138,-14 c 0,0 -4,83 -4,83 l -162,11 z m 181,-451 323,-14 -9,258 -314,15 0,-259 z m 4791,16 45,-2 2,176 -48,-1 1,-173 z m -706,-9 c 18,-7 22,-5 44,-3 l 1,174 -50,3 5,-174 z m -562,-12 48,-1 -2,132 71,4 3,43 -121,0 1,-178 z m -380,1 46,0 -2,175 -44,3 c 0,0 0,-178 0,-178 z m -932,188 61,-179 48,-1 c 11,30 20,61 28,90 5,13 10,28 15,41 2,5 7,19 8,23 l -1,20 -43,2 -12,-27 -44,-1 c -25,34 11,31 -60,32 z m 1532,-186 44,0 c 0,44 -6,100 6,134 41,6 43,1 44,-40 1,-32 -1,-62 4,-93 l 44,-1 c 2,90 14,173 -70,179 -45,4 -65,-7 -74,-50 -5,-27 -3,-101 2,-129 z m -1107,178 4,-171 c 36,-1 139,-23 135,94 -3,72 -82,79 -139,77 z m -203,2 -47,2 c 1,-37 0,-151 9,-176 36,-6 39,-7 54,21 5,9 9,17 15,28 l 26,31 c 0,-54 -16,-94 43,-81 l -1,171 -50,6 c -7,-19 -31,-77 -47,-88 l -2,86 z m 1528,-2 -41,1 c -11,-21 -3,-161 -1,-175 l 46,-4 c 8,18 36,76 50,87 l 3,-85 44,0 -2,175 c -89,7 -52,-39 -98,-87 l -1,88 z m 663,9 -54,-1 c -8,-15 -20,-56 -36,-64 l -3,62 -48,-1 8,-173 c 29,-7 119,-17 119,48 0,45 -27,27 -16,63 5,19 22,38 30,66 z m -1644,-12 -37,0 c 0,-2 2,-170 2,-170 0,0 26,-1 53,0 l 28,88 27,-87 60,-1 c 0,28 1,170 1,170 0,0 -37,0 -37,0 l -3,-109 c 1,3 -47,110 -47,110 0,0 -41,-85 -45,-104 l -2,103 z m -139,-101 c 10,0 73,-1 74,-1 l -1,25 c 0,0 -53,-1 -73,1 0,21 -1,41 -1,41 0,0 79,-1 79,-1 l 0,35 c -2,1 -126,3 -126,3 -1,-36 3,-172 3,-172 0,0 124,-1 124,-1 l 0,33 -78,2 c 0,0 -1,34 -1,35 z m 1879,82 c 7,-42 -22,-31 -54,-49 -21,-13 -33,-39 -17,-66 24,-41 114,-47 118,27 -72,0 -40,-26 -81,-21 9,44 127,31 73,119 -28,47 -133,43 -123,-35 l 35,-2 c 17,16 14,31 49,27 z m -339,-107 c 4,28 2,21 32,22 39,2 35,-8 41,22 -11,21 4,14 -34,16 -23,1 -19,-5 -39,2 l -1,25 c 21,10 51,4 79,9 l 1,37 -130,-1 4,-174 c 36,-5 99,-8 125,6 l 1,25 c -21,11 -37,4 -58,6 l -16,4 c -1,0 -3,1 -5,1 z m -889,23 0,18 c -25,5 -45,3 -70,5 l 0,41 76,-1 2,38 -188,2 c -17,-36 -21,-44 -41,-72 l -2,71 -43,2 c 0,0 0,-130 0,-174 104,-20 152,30 91,87 13,18 57,86 57,85 0,-42 3,-126 3,-174 l 120,-2 1,36 -76,3 c -1,15 0,33 0,33 0,0 50,0 70,2 z m 761,110 -57,-10 c -4,-9 -2,-4 -4,-9 -3,-7 -6,-17 -8,-24 -11,-41 -38,-106 -36,-134 l 44,0 34,111 c 44,-66 -8,-116 79,-113 l -52,179 z m 849,-64 c -1,16 -1,80 -1,80 0,0 -41,-1 -53,1 11,14 -5,5 22,10 l 93,1 c 41,0 82,-3 117,-2 76,3 148,10 227,12 l -4,245 c -42,-29 -597,-16 -599,-16 -2,1 -4,2 -6,3 0,-39 1,-227 6,-254 -3,-2 -11,0 -11,0 0,0 2,-135 2,-139 l -47,-1 -1,-42 c 0,0 139,4 139,4 -14,-7 -63,-10 -82,-14 l 3,-87 c 18,-6 266,1 308,3 l 147,7 c 24,0 135,5 142,14 l 6,0 c -1,57 -1,115 -2,172 -1,100 23,89 -68,87 -52,-1 -325,-14 -339,-4 0,-21 0,-52 1,-80 z m -4761,-136 c 41,0 113,-4 146,-9 l 149,-7 c 55,-1 104,3 160,-3 47,-5 80,-8 130,-7 l -9,260 c -90,1 -198,12 -292,14 -29,1 -54,9 -77,9 -22,0 -40,-5 -68,-3 -52,3 -97,8 -151,12 8,-67 9,-255 12,-266 z m -356,6 c -1,127 -2,215 -4,341 0,0 -1861,133 -1861,133 1,1 47,45 48,46 21,-5 164,-20 203,-24 -11,25 -42,72 -42,72 0,0 -232,21 -232,21 2,-4 71,-69 71,-69 0,0 -48,-46 -48,-46 -1,0 -109,106 -109,106 -45,6 -185,21 -213,23 0,0 -4,67 -4,68 85,-9 909,-65 909,-65 0,0 12,-46 16,-65 0,0 -45,8 -45,8 0,-2 17,-56 26,-79 l 237,-18 c -3,16 -22,76 -22,76 0,0 -150,12 -196,13 -2,9 -16,65 -16,65 0,0 989,-76 989,-76 l 3,-63 -164,11 c 8,-14 27,-73 27,-73 64,-7 165,-12 230,-16 -6,18 -28,75 -28,75 0,0 -65,3 -65,3 0,4 -3,63 -3,63 101,-6 195,-4 290,-9 -3,301 -7,683 -6,896 -2,104 -4,238 -4,263 71,1 320,-18 376,-3 1,-162 -18,-317 -15,-478 1,-43 1,-87 1,-129 l 2,-154 c 4,-365 -2,174 1,-314 -1,-58 -1,-18 -1,-56 l 83,-7 -89,-4 c 0,-38 -8,-238 7,-252 10,-11 1,-5 25,-8 l 260,-14 c 45,-1 104,-3 148,-6 46,-3 108,-2 154,-11 -12,65 1,239 -16,275 l 83,-6 -58,-4 c 0,-47 1,-94 1,-141 l 2,-112 c 5,-11 -15,-6 6,-5 7,-10 140,-10 159,-10 33,-1 58,-8 92,-7 64,2 54,4 74,-5 l 11,-7 c -1,-1 -10,-5 -17,-12 l -320,17 c -10,-26 -4,-229 3,-265 419,-15 838,-27 1256,-50 -5,154 1,-230 -3,285 l -37,2 c -6,-16 -3,-4 -4,-23 l 2,-89 c -20,56 -39,112 -39,112 0,0 -11,1 -20,1 -5,-19 -28,-89 -38,-111 l 2,114 c 25,4 35,3 60,2 27,-1 41,2 68,2 -6,33 -9,241 -4,274 127,4 286,-2 414,-5 139,-5 274,-5 412,-6 546,-4 1123,-1 1667,8 137,3 278,9 413,8 141,0 286,15 427,13 l 6,-268 c 670,25 492,32 787,33 55,0 104,6 160,7 l -5,554 c -159,-2 -159,-23 -240,-22 -35,0 -60,-5 -93,-6 l -1,25 73,0 c 0,13 -13,3 46,9 l 215,12 -6,246 c -113,-1 -239,-17 -327,-9 -6,410 -5,820 -9,1230 -2,242 -44,2029 -36,2040 0,0 321,-1 321,-1 0,-679 16,-1349 5,-1900 0,0 -250,0 -250,0 1,-35 4,-223 4,-223 2,6 258,8 284,9 2,-91 -2,-220 1,-319 l 22,2 -66,-6 1,23 c 0,0 -244,-8 -247,-8 0,0 0,-501 0,-501 47,1 393,12 393,13 1,-54 1,-63 1,-63 -140,1 -241,1 -382,-5 l 1,-244 c 64,4 132,-2 200,-1 0,11 0,70 3,80 0,0 1816,143 1978,167 47,7 102,19 140,22 l 279,40 c 1,-28 -87,-24 -127,-33 -604,-91 -1211,-156 -1835,-212 l -336,-36 c -10,-43 -3,-248 -1,-309 -2,-93 14,-730 -1,-756 -11,38 4,128 -17,170 -56,-1 -110,-18 -163,-10 -44,6 -41,-3 -77,-7 l -75,-4 c -13,-41 -4,-98 -4,-142 l 1,-103 c -2,-28 9,-16 25,-16 l 296,9 c -4,-17 -8,15 1,-13 3,-13 3,-7 5,-7 l -572,-28 c 0,0 -5,-3 -751,-27 -1236,-37 -2478,-35 -3715,9 -120,4 -247,14 -365,14 -117,1 -236,17 -357,20 -73,1 -725,46 -725,46 z"
         id="path13"
         inkscape:connector-curvature="0"
         style="fill:#ffffff;fill-opacity:0.20192307" /><path
         class="fil0"
         d="m 18314,10181 c 97,197 202,361 317,548 55,83 102,169 158,254 52,78 215,302 215,302 2,5 -16,1321 -19,1573 l 79,-1 c 9,-390 38,-1572 38,-1572 0,0 -621,-1086 -630,-1111 0,0 1828,185 1828,185 0,0 -4,2518 -4,2518 23,-6 113,2 113,2 4,-30 1,-2182 1,-2182 0,0 536,89 536,89 0,0 -5,-230 -4,-243 0,0 -534,-88 -534,-88 -5,-76 24,-509 6,-512 l -279,-40 c -38,-3 -93,-15 -140,-22 -48,-7 -99,-13 -140,-20 -124,-21 -885,-100 -1014,-109 -53,-3 -99,-14 -144,-14 -68,0 -346,-32 -440,-45 -46,-7 -54,-5 -61,-6 -1,26 -2,472 -3,485 60,1 116,7 121,9 z"
         id="path15"
         inkscape:connector-curvature="0"
         style="fill:#ffffff;fill-opacity:0.20192307" /><path
         class="fil0"
         d="m 21036,10655 -1,134 -4,292 c -8,71 -3,206 -6,290 -3,86 -1,136 -3,154 l 1,12 c -8,45 -4,139 -4,191 -1,67 -1,135 -2,203 -2,79 -15,114 18,182 22,46 37,95 60,141 43,88 83,178 126,273 l 97,203 c 25,48 13,58 45,67 l 22,0 c -19,-24 -13,-3 -24,-34 l 0,-20 c 15,-71 11,-623 14,-748 2,-81 -2,-178 5,-257 l 0,-103 14,-716 c 135,-4 412,35 556,75 24,6 49,11 68,19 21,8 43,27 56,29 2,1 14,2 20,7 -8,48 -20,22 -13,61 l 113,-5 3,-129 c -33,-18 -74,-1 -101,-23 l 101,2 0,-133 c -38,0 -53,-7 -95,-7 -17,-19 -9,16 -10,-13 l -10,-7 c -8,12 1,5 -8,12 -1,-22 -3,-55 5,-70 l -44,-44 c -40,-36 -256,-72 -328,-82 -60,-8 -119,-18 -180,-25 -105,-12 -79,-2 -168,-30 -55,-8 -158,-64 -219,-79 7,77 1,527 -4,643 l -6,430 c 0,35 -3,70 -2,105 0,24 1,30 0,50 l -13,484 c -12,-9 -29,-53 -37,-71 -21,-51 -19,-26 -15,-82 l 1,-222 c 8,-431 22,-931 16,-1361 l 0,0 -46,-14 c 0,0 1,173 2,216 z"
         id="path17"
         inkscape:connector-curvature="0"
         style="fill:#ffffff;fill-opacity:0.20192307" /><path
         class="fil0"
         d="m 13092,8551 c -10,78 -8,141 26,145 28,-4 32,-54 27,-142 0,0 42,-1 42,-4 1,55 -1,68 -3,104 -5,106 -141,82 -142,-1 0,-32 6,-98 6,-100 l 44,-2 z m 258,166 c 0,0 0,-25 0,-80 0,-59 1,-95 1,-95 19,-1 122,1 122,1 l -1,33 c -1,0 -77,-1 -77,-1 l 0,28 c 0,0 70,0 70,0 0,0 -1,39 -1,39 -6,1 -55,0 -64,0 l -1,31 77,2 1,38 -265,8 c 1,-56 4,-114 2,-169 0,0 46,-3 46,-3 l 0,126 69,1 c 0,0 1,37 0,41 0,0 23,0 21,0 z m 194,-6 c -4,-47 7,-61 -15,-100 -13,-22 -35,-51 -35,-74 l 46,0 32,52 28,-55 45,0 c -9,28 -28,54 -41,78 -21,39 -9,50 -15,97 l -45,2 z m -647,7 c -9,-20 -9,-46 -9,-46 l 35,-3 c -1,22 22,48 54,26 24,-42 -29,-29 -60,-49 -21,-13 -30,-38 -14,-65 22,-38 108,-52 113,23 -13,2 -30,1 -30,1 1,-16 -24,-35 -48,-11 -21,53 88,9 79,83 -6,50 -48,66 -103,53 l -11,7 c -20,9 -10,7 -74,5 -34,-1 -59,6 -92,7 -19,0 -152,0 -159,10 -21,-1 -1,-6 -6,5 l -2,112 c 0,47 -1,94 -1,141 l 58,4 1196,-32 c -5,-33 -2,-241 4,-274 -27,0 -41,-3 -68,-2 -25,1 -35,2 -60,-2 l -39,-3 c 1,-54 5,-121 5,-175 0,0 26,0 60,0 l 24,92 22,-97 c 1,-2 42,-3 63,-3 2,0 0,-48 2,-105 -418,23 -837,35 -1256,50 -7,36 -13,239 -3,265 l 320,-17 z"
         id="path19"
         inkscape:connector-curvature="0"
         style="fill:#ffffff;fill-opacity:0.20192307" /><path
         class="fil0"
         d="m 13895,10692 c -377,7 -752,5 -1126,12 17,21 364,300 364,300 320,6 3156,-35 3156,-35 l 7,-271 c -473,-2 -936,-3 -1417,-4 -328,-1 -655,0 -984,-2 z"
         id="path21"
         inkscape:connector-curvature="0"
         style="fill:#ffffff;fill-opacity:0.20192307" /><path
         class="fil0"
         d="m 22404,11250 c 37,0 272,88 333,105 534,153 514,102 644,147 43,15 241,92 273,93 28,7 7,2 15,-3 l 1,-203 -513,-213 c -80,-22 -63,-53 -71,46 -27,-4 -431,-167 -500,-193 -41,-15 -135,-57 -168,-60 -19,14 -3,241 -14,281 z"
         id="path23"
         inkscape:connector-curvature="0"
         style="fill:#ffffff;fill-opacity:0.20192307" /><path
         class="fil0"
         d="m 16624,8541 -1,42 -45,1 -1,131 -37,3 c -5,27 -6,215 -6,254 3,-1 4,-2 6,-3 60,1 577,1 599,16 l 4,-245 c -79,-2 -151,-9 -227,-12 -35,-1 -76,2 -117,2 -31,-1 -88,-8 -107,-12 0,-2 0,-84 0,-84 0,0 -54,-92 -54,-92 0,0 49,1 49,1 0,0 15,26 30,52 0,0 22,-39 29,-50 l 47,2 c -1,2 -57,85 -57,85 0,0 0,66 0,86 13,-10 288,3 340,4 91,2 67,13 68,-87 1,-57 1,-115 2,-172 l -6,0 c -7,-9 -118,-14 -142,-14 l -147,-7 c -42,-2 -290,-9 -308,-3 l -3,87 c 19,4 70,8 84,15 z"
         id="path25"
         inkscape:connector-curvature="0"
         style="fill:#ffffff;fill-opacity:0.20192307" /><path
         class="fil0"
         d="m 16423,10703 c 52,1 524,9 524,12 l -11,480 43,-5 c 4,-4 13,-453 13,-453 77,-1 114,-3 114,-3 0,0 2,-67 0,-187 -7,0 -50,0 -50,0 0,0 -12,125 -12,125 0,0 -568,-3 -568,-3 0,0 -8,-292 -8,-292 -8,-1 -41,0 -49,0 l 4,326 z"
         id="path27"
         inkscape:connector-curvature="0"
         style="fill:#ffffff;fill-opacity:0.20192307" /><path
         class="fil0"
         d="m 9488,9116 -55,8 c -12,225 -69,1198 -81,1466 0,0 93,-3 93,-3 5,-162 38,-1329 43,-1471 z"
         id="path29"
         inkscape:connector-curvature="0"
         style="fill:#ffffff;fill-opacity:0.20192307" /><path
         class="fil0"
         d="m 11970,9587 c 0,5 -1,128 -1,128 733,-1 2203,-24 2203,-24 0,0 11,366 9,453 l 82,1 c 0,0 2,-380 -13,-491 l 220,-9 -9,196 142,0 -84,-5 3,-193 c 0,0 630,-39 630,-39 l -2,236 33,-2 c 11,-152 9,-234 9,-234 19,-20 552,-7 639,-2 0,0 8,198 8,246 l 57,1 c 0,-3 -3,-246 -3,-246 15,-5 603,6 605,7 -3,11 4,220 3,258 l 43,-2 c 0,-2 -1,-257 -1,-260 4,0 579,19 579,19 l -5,256 c 1,0 28,0 35,-1 -5,-28 9,-251 9,-251 4,0 443,7 609,6 0,0 1,-35 1,-36 -215,-3 -422,5 -641,-6 7,0 -473,-15 -684,-17 -433,-4 -880,-19 -1316,-13 -222,3 -430,-3 -652,3 -106,3 -210,3 -314,1 -104,-1 -234,14 -331,6 l -199,4 c -93,4 -350,11 -437,7 0,0 -1227,4 -1227,3 z"
         id="path31"
         inkscape:connector-curvature="0"
         style="fill:#ffffff;fill-opacity:0.20192307" /><path
         class="fil0"
         d="m 15826,10190 2,188 65,1 -1,-195 c 216,2 395,3 610,6 0,67 -1,134 -3,201 0,0 27,0 27,0 0,0 1,-27 1,-38 0,0 1191,61 1191,61 0,0 1,24 1,31 1,4 -500,-17 -1193,-54 l 1,-199 c -1,-5 1190,28 1190,28 0,0 1,144 2,225 l 30,4 2,-271 c 0,0 -2465,-48 -2472,-48 38,57 38,57 38,57 4,-2 120,-1 509,3 z"
         id="path33"
         inkscape:connector-curvature="0"
         style="fill:#ffffff;fill-opacity:0.20192307" /><path
         class="fil0"
         d="m 11972,9268 -1,95 c 91,-5 534,-17 534,-17 5,199 5,235 5,235 22,-1 41,-4 68,-2 0,-37 -3,-161 -3,-236 163,-7 370,3 526,-6 -2,35 4,242 4,244 17,1 30,2 32,1 0,0 6,-147 10,-239 33,-11 181,-11 223,-11 1,96 -3,195 -2,253 26,0 33,-1 33,-1 -1,-102 -3,-92 5,-254 106,-2 239,-12 358,-13 0,0 3,236 4,257 l 41,0 0,-259 c 102,-4 519,0 682,-8 l -1,259 c 19,-1 38,-1 38,-1 2,-11 1,-213 4,-259 211,-8 394,-2 605,-3 l -7,260 49,-1 c 5,-49 4,-261 4,-262 217,-1 434,-7 651,6 0,0 7,234 4,264 41,0 45,-3 42,-3 9,-18 6,-267 6,-267 l 15,0 410,7 200,5 2,16 2,253 25,-3 c 1,-75 -6,-178 -6,-264 2,2 508,8 593,11 l -3,268 26,1 c -1,-49 3,-267 3,-267 205,5 413,6 617,19 l 0,-100 c 0,0 -5798,22 -5798,22 z"
         id="path35"
         inkscape:connector-curvature="0"
         style="fill:#ffffff;fill-opacity:0.20192307" /><path
         class="fil0"
         d="m 13166,10379 c 152,2 315,-1 467,-5 78,-1 156,-1 234,-2 59,-1 234,-7 234,-7 4,-4 209,-213 212,-219 l -173,-4 c -1,5 1,27 1,27 0,0 120,0 120,0 -3,4 -80,84 -80,84 0,0 -49,-17 -49,-17 0,0 -133,112 -138,114 0,0 -183,5 -183,5 0,0 3,29 0,0 l 0,0 -646,1 1,23 z"
         id="path37"
         inkscape:connector-curvature="0"
         style="fill:#ffffff;fill-opacity:0.20192307" /><path
         class="fil0"
         d="m 21879,12406 c 3,0 154,13 154,13 l -3,111 -152,-11 c 0,-18 1,-113 1,-113 z m 181,36 c 1,1 90,1 107,4 l 0,95 c -39,1 -105,0 -111,1 0,0 3,-43 5,-104 1,-39 2,-105 2,-108 0,0 67,-2 103,-1 0,0 -1,99 -1,99 -1,1 -102,0 -104,0 0,0 0,15 -1,14 z m 125,-205 c 0,0 0,40 1,71 -1,0 -120,4 -121,4 l -1,-110 0,29 c 31,-1 121,6 121,6 z m 193,-23 c 0,0 -314,-12 -314,-12 l 4,-213 c 0,0 208,1 312,6 0,0 1,-18 1,-18 0,0 -179,-2 -181,-2 2,-28 -6,-94 -6,-96 43,-1 160,9 187,0 l -3,335 z m 3,-337 c -3,-6 3,-8 -29,-9 -14,-1 -25,0 -38,1 -26,1 -49,-1 -74,0 -30,0 -66,13 -43,-104 69,-6 116,13 192,4 l -8,108 z m -310,-140 c 1,-1 2,-88 3,-117 0,0 138,1 138,1 0,0 0,118 0,118 l -141,-2 z m 136,-359 c 1,33 -1,99 0,99 l -132,-1 c 0,0 -1,-98 -1,-98 0,0 133,0 133,0 z m -159,107 c -2,72 -2,148 -3,227 l 1,7 -5,106 23,6 5,-71 c 34,2 77,-2 110,5 l 10,102 -121,0 -5,-15 -20,-11 -2,100 28,7 -1,-77 116,7 c 0,0 -2,63 -2,98 -2,-1 -113,-4 -113,-4 l 0,-6 -28,-10 c -1,30 1,176 -6,203 l -3,8 5,8 0,23 0,100 -1,17 -3,96 c -8,0 -50,-1 -53,-8 -1,-2 -3,-2 -4,-3 l -96,-10 1,-102 -3,-108 -3,-14 c -4,-36 7,-89 4,-117 l -6,0 c -8,16 -8,43 -8,63 1,74 -4,45 -10,64 -10,31 -12,378 -4,415 -7,92 13,131 13,50 3,-15 1,-8 5,-15 11,-24 9,-51 8,-85 35,-5 123,1 153,12 0,1 -3,-15 0,2 0,2 1,4 1,6 l -4,91 -73,-1 77,6 -5,115 c 13,13 -13,9 27,13 -8,-28 2,-225 2,-225 2,1 338,-3 342,-3 -1,-2 3,-7 -2,-9 0,0 -186,-1 -205,0 -3,-31 -1,-64 -5,-102 l 199,-4 c 0,0 1,-12 1,-12 -1,0 -198,1 -201,1 l -2,-101 c 16,1 173,1 180,-2 l 0,76 27,-2 -2,-22 2,-16 0,-95 2,-10 -1,-92 -2,-12 3,-87 2,-26 0,-264 c 4,-49 3,-102 6,-155 l 605,158 c 21,7 53,14 80,15 l 3,-303 c -4,-29 13,-32 -17,-27 l 26,315 c -171,-51 -480,-126 -696,-183 l 0,-18 c 0,0 -152,-1 -158,-1 l 0,-83 c -3,0 -30,0 -30,0 0,0 -1,83 -1,83 -37,0 -143,-3 -143,-3 0,-1 0,-38 0,-83 0,0 230,5 331,5 l 2,-108 c -15,-17 -19,21 -11,-23 -1,-1 -2,-3 -2,-4 l -8,-42 c -2,29 0,15 -10,22 -35,28 3,5 -42,0 -31,-4 -16,-12 -42,-2 l -24,7 c -15,1 3,-7 -7,0 -2,1 -6,18 -27,16 -29,-2 -6,-12 -40,-8 -42,6 -76,-2 -117,5 2,-32 12,-30 14,-60 -5,-5 -16,-5 -20,-7 0,63 -14,-21 -18,55 -3,53 3,72 1,136 z"
         id="path39"
         inkscape:connector-curvature="0"
         style="fill:#ffffff;fill-opacity:0.20192307" /><path
         class="fil0"
         d="m 7269,11861 c 55,0 92,-21 140,-19 l 0,147 -148,0 c 0,-47 -4,-81 8,-128 z m -301,-302 126,-2 c 0,0 2,82 2,82 -89,14 -130,15 -130,15 0,0 2,-95 2,-95 z m 150,74 0,-204 c 5,-2 126,-30 132,-32 l -1,202 -131,34 z m -22,-207 -1,115 c -3,1 -126,2 -126,2 0,0 -1,-95 0,-115 0,0 110,-1 127,-2 z m 295,130 c -24,9 -97,5 -122,4 l 0,-130 c 8,0 109,2 130,11 7,25 -4,50 -2,64 l -6,51 z m -563,-301 c 28,-5 112,-7 113,-7 0,0 5,148 4,150 l -48,0 c -22,0 -41,1 -63,-1 -4,-46 -6,-142 -6,-142 z m 135,-7 c 0,0 132,-29 132,-29 -1,171 2,168 0,178 l -128,1 c -2,-32 -2,-146 -4,-150 z m 167,-58 117,-28 c 0,38 -1,203 -1,203 0,0 -116,21 -116,21 0,0 -3,-180 0,-196 z m 139,-30 c 69,-13 83,-14 136,-24 l -1,128 -132,12 c 0,-31 -3,-116 -3,-116 z m -460,70 c 1,9 0,416 0,416 0,0 24,-4 24,-4 0,0 7,-202 8,-206 l 101,-2 c 0,2 -5,224 -5,224 -2,-1 -125,10 -125,10 l -7,73 c 9,-3 15,-5 20,-8 2,-1 2,-49 3,-50 53,11 64,17 111,-7 2,29 -2,197 0,205 l -122,24 c 0,0 2,26 2,26 0,0 46,-6 52,-6 0,30 0,59 -1,89 0,32 0,65 -1,98 2,-1 28,0 28,0 0,0 0,-31 1,-98 l 1,-109 c 69,-10 113,-26 190,-25 18,42 0,176 12,200 10,-7 10,11 7,-36 l -2,-171 c 48,1 91,-3 140,-9 4,28 0,68 0,99 l -1,81 c 7,26 -10,4 12,18 18,-22 7,31 8,-54 l 143,-3 c 0,1 0,50 0,50 0,0 6,1 14,1 l -1,-219 c 1,-3 150,-14 176,-13 l -3,-30 c 0,0 -636,84 -636,84 0,0 7,-203 7,-203 0,0 127,-19 129,-19 l 9,201 c 0,0 15,-3 15,-3 3,-54 -7,-198 -7,-198 18,-8 116,-30 137,-24 l -1,208 c 0,0 23,-3 23,-3 1,-2 -2,-182 -2,-207 5,-3 1358,18 1580,29 0,0 2,-38 2,-38 0,5 -104,-6 -203,-6 1,-50 4,-186 2,-227 l -25,-1 c 0,34 -4,201 -5,226 -22,6 -220,-1 -220,-1 l 2,-143 c -4,-29 5,-21 -23,-25 -9,21 -8,131 -9,162 0,0 -77,-5 -113,-7 l -7,-161 c -3,0 -17,-1 -17,-1 0,0 -1,135 -1,151 0,0 -540,-22 -540,-22 l 4,-157 -18,-2 c -4,60 -6,162 -6,162 0,0 -78,5 -253,1 3,-84 8,-197 6,-228 l 326,23 c 51,-8 109,3 161,4 209,17 503,34 712,37 -2,-2 3,-21 1,-19 -131,-11 -322,-20 -440,-23 l -1,-166 -21,-2 -5,172 c -14,0 -73,-3 -82,-4 0,0 -4,-176 -4,-176 -2,-5 -27,0 -28,-3 l -6,177 c -42,-3 -82,-8 -124,-10 l -2,-169 -33,2 c 3,28 0,111 0,138 -13,0 -27,-4 -27,-4 0,0 1,-177 1,-177 0,-2 -30,1 -30,1 l 1,164 c 0,0 -386,-21 -386,-21 0,0 2,-147 1,-189 0,0 -138,28 -171,35 4,-26 3,-133 3,-133 0,0 -22,8 -22,8 -1,3 -4,127 -2,131 0,0 -121,30 -121,30 0,0 5,-191 3,-226 0,0 -25,9 -23,5 0,0 -6,194 -7,232 l -138,29 6,-234 -33,9 c -1,4 -7,239 -7,239 0,0 -113,8 -117,8 z"
         id="path41"
         inkscape:connector-curvature="0"
         style="fill:#ffffff;fill-opacity:0.20192307" /><path
         class="fil0"
         d="m 17771,9305 c 33,1 58,6 93,6 81,-1 81,20 240,22 l 5,-554 c -56,-1 -105,-7 -160,-7 -50,0 -139,-9 -183,-3 l 1,250 c 0,0 0,0 4,286 z"
         id="path43"
         inkscape:connector-curvature="0"
         style="fill:#ffffff;fill-opacity:0.20192307" /><path
         class="fil0"
         d="m 7442,10531 c 0,24 -1,66 -1,66 169,17 906,52 1238,71 5,0 -5,-57 -5,-57 -181,-17 -1028,-67 -1232,-80 z"
         id="path45"
         inkscape:connector-curvature="0"
         style="fill:#ffffff;fill-opacity:0.20192307" /><path
         class="fil0"
         d="m 17156,9007 c 49,-7 191,5 255,6 120,2 235,7 356,6 2,-30 -8,-161 -1,-258 l -604,-22 -6,268 z"
         id="path47"
         inkscape:connector-curvature="0"
         style="fill:#ffffff;fill-opacity:0.20192307" /><path
         class="fil0"
         d="m 12055,9047 489,-20 c 17,-36 4,-210 16,-275 -46,9 -108,8 -154,11 -44,3 -103,5 -148,6 l -260,14 c -24,3 -15,-3 -25,8 -15,14 -7,214 -7,252 l 89,4 z"
         id="path49"
         inkscape:connector-curvature="0"
         style="fill:#ffffff;fill-opacity:0.20192307" /><path
         class="fil0"
         d="m 20205,11219 c -3,-30 -10,-617 -10,-617 -164,-5 -753,-69 -781,-64 0,0 232,577 232,577 0,0 -161,-10 -161,-10 -1,-4 -224,-557 -224,-557 -25,2 -460,-36 -460,-36 l 353,637 c 244,11 1051,70 1051,70 z"
         id="path51"
         inkscape:connector-curvature="0"
         style="fill:#ffffff;fill-opacity:0.20192307" /><path
         class="fil0"
         d="m 22074,11042 0,24 c -40,-3 -14,-1 -24,7 0,165 9,48 18,117 -1,0 -3,-1 -3,0 -5,17 4,-7 -15,6 -2,96 -9,83 15,98 4,2 15,2 20,7 -2,30 -12,28 -14,60 41,-7 75,1 117,-5 34,-4 11,6 40,8 169,13 173,43 176,-114 11,-40 -5,-267 14,-281 -17,-26 -12,-35 -11,-71 0,-27 1,-53 0,-78 -424,-23 -242,-84 -372,-127 58,58 36,33 39,114 31,5 9,22 123,15 l 0,133 -101,-2 c 27,22 68,5 101,23 l -3,129 -113,5 c -7,-39 5,-13 13,-61 -6,-5 -18,-6 -20,-7 z"
         id="path53"
         inkscape:connector-curvature="0"
         style="fill:#ffffff;fill-opacity:0.20192307" /><path
         class="fil0"
         d="m 11977,8502 c -3,11 -4,199 -12,266 54,-4 99,-9 151,-12 28,-2 46,3 68,3 23,0 48,-8 77,-9 94,-2 202,-13 292,-14 l 9,-260 c -50,-1 -83,2 -130,7 -56,6 -105,2 -160,3 l -149,7 c -33,5 -105,9 -146,9 z"
         id="path55"
         inkscape:connector-curvature="0"
         style="fill:#ffffff;fill-opacity:0.20192307" /><path
         class="fil0"
         d="m 11601,11235 c -1,79 9,461 -11,502 l 12,6 c 1,-1 3,-5 3,-4 1,1 3,-3 4,-4 l 233,-161 c 26,-19 54,-44 86,-54 18,-26 18,0 20,-41 3,-72 -5,-98 1,-174 0,0 1113,-21 1113,-21 0,0 -1,-62 -1,-65 l -1087,16 c -1,-2 -1,-185 -2,-229 0,0 -43,-6 -43,-6 0,77 -1,155 -2,232 -115,-1 -211,4 -326,3 z"
         id="path57"
         inkscape:connector-curvature="0"
         style="fill:#ffffff;fill-opacity:0.20192307" /><path
         class="fil0"
         d="m 15023,9832 c 78,77 152,174 219,251 0,-1 -1,-143 -1,-180 l 307,2 c 1,72 -1,194 1,237 l 52,2 c -4,-8 -2,-239 -2,-239 0,0 236,0 236,0 l 1,240 52,2 -2,-243 c 0,0 427,1 427,1 0,0 7,239 4,245 l 50,1 -4,-247 146,0 -2,250 c 3,6 33,0 38,1 0,0 -9,-251 -9,-251 0,0 581,12 581,12 0,33 -3,250 -3,250 0,0 44,1 46,1 -3,-72 -2,-251 -2,-251 0,0 602,6 609,4 0,0 1,-30 1,-33 0,0 -2722,-55 -2745,-55 z"
         id="path59"
         inkscape:connector-curvature="0"
         style="fill:#ffffff;fill-opacity:0.20192307" /><path
         class="fil0"
         d="m 12763,10416 c -1,-21 0,-11 0,-31 l 384,-6 0,-36 c -40,0 -255,0 -411,2 0,0 2,71 2,71 0,0 21,-1 25,0 z"
         id="path61"
         inkscape:connector-curvature="0"
         style="fill:#ffffff;fill-opacity:0.20192307" /><path
         class="fil0"
         d="m 4782,11659 c 1,63 0,127 -1,190 -1,57 -4,130 -2,184 l 22,1 c 19,5 8,-3 12,16 l 8,-13 c 1,-1 3,-14 3,-15 l 27,-128 c 25,-90 135,-688 158,-708 -52,4 -227,-25 -243,-7 36,2 15,-17 21,23 l -3,217 c -2,80 0,159 -2,240 z"
         id="path63"
         inkscape:connector-curvature="0"
         style="fill:#ffffff;fill-opacity:0.20192307" /><path
         class="fil0"
         d="m 19830,11854 c 0,0 2,-399 2,-399 0,0 308,23 308,23 0,0 -12,382 -13,391 0,0 -292,-15 -297,-15 z m -78,47 c 127,1 272,17 399,17 l -5,216 -391,-18 -3,54 c 24,-9 337,4 393,5 0,0 -4,167 -6,180 l -402,-12 0,53 c 2,0 387,9 397,10 -1,13 -8,190 -8,190 0,0 -293,-16 -397,-14 l 0,50 c 104,3 291,12 394,13 l -8,195 c -46,0 -362,-14 -402,-16 l -4,38 c 48,8 447,17 447,17 l 55,-1448 -457,-39 -2,509 z"
         id="path65"
         inkscape:connector-curvature="0"
         style="fill:#ffffff;fill-opacity:0.20192307" /><path
         class="fil0"
         d="m 21717,12509 c -61,-4 -298,-2 -331,-14 0,-22 0,-103 1,-100 0,1 -1,-5 -1,-6 1,-1 4,-4 6,-6 136,1 302,2 435,17 l -5,111 -105,-2 z m -323,-255 c 64,1 402,9 436,25 l -5,109 -431,-20 c -2,-73 1,-65 0,-114 z m 2,-128 442,22 c -11,43 -10,71 -11,113 l -437,-21 c 6,-109 0,0 6,-114 z m 465,-305 c 24,-4 59,-18 85,-20 34,-3 57,14 91,17 l 3,17 c 1,43 1,-26 -1,12 l -7,87 c -26,-13 -51,-13 -70,-20 l -103,-11 c -137,-17 -116,8 -76,-2 43,6 90,9 133,14 39,5 80,18 119,23 l 4,19 -9,92 -56,-12 -185,-19 c 0,0 -6,6 -6,6 62,7 82,6 90,25 l -33,2 -10,88 -430,-24 c 2,-27 3,-81 4,-113 l 201,9 c 30,3 178,13 178,13 0,0 4,-4 6,-6 l -55,-6 -335,-22 c 2,-32 2,-83 4,-110 103,-3 203,13 301,14 30,1 27,3 50,-2 27,-25 64,-61 107,-71 z m -456,-65 c 51,0 122,7 164,8 33,0 38,4 69,9 0,0 170,-3 204,16 l 11,9 c 2,-2 4,3 6,5 -119,1 -150,77 -197,80 -45,4 -210,-10 -262,-17 2,-27 5,-33 5,-110 z m 577,40 -196,-25 c -41,-3 -70,-8 -111,-11 -32,-2 -67,-4 -99,-6 -49,-2 -152,-1 -196,-16 -7,79 -3,176 -5,257 -3,125 1,677 -14,748 -10,-54 5,-60 12,-104 l 65,1 1,-13 -61,-5 -1,-112 c 56,-10 162,5 224,5 78,1 138,3 221,11 9,31 -9,51 29,65 -8,-37 -6,-384 4,-415 6,-19 11,10 10,-64 0,-20 0,-47 8,-63 l 6,0 c 6,-17 -24,-27 81,-5 70,15 67,2 77,30 l -5,93 3,-8 c 7,-27 5,-173 6,-203 l 28,10 c -2,-16 -1,-2 0,-18 l -28,-7 2,-100 20,11 1,-21 -23,-6 5,-106 -8,24 c -1,7 0,17 0,25 0,22 2,25 -5,47 l -23,-16 c -19,-6 -21,-7 -28,-3 z"
         id="path67"
         inkscape:connector-curvature="0"
         style="fill:#ffffff;fill-opacity:0.20192307" /><path
         class="fil0"
         d="m 18114,8597 c 5,-23 10,-97 11,-121 0,-1 0,2 0,0 l -313,-17 c -32,0 1,18 -39,28 10,12 5,1 6,14 l -1,103 c 0,44 -9,101 4,142 l 75,4 c 36,4 33,13 77,7 53,-8 107,9 163,10 21,-42 6,-132 17,-170 z"
         id="path69"
         inkscape:connector-curvature="0"
         style="fill:#ffffff;fill-opacity:0.20192307" /><path
         class="fil0"
         d="m 4753,11712 c 3,35 4,12 -11,22 12,7 8,5 15,11 -1,109 17,162 -37,170 3,2 4,10 30,9 -100,30 -628,170 -737,188 -3,7 19,2 -18,12 l -1,-36 c 0,-4 1,-15 0,-19 -7,-21 1,-10 -13,-24 l -2,164 20,5 11,1 9,-9 c 24,-18 109,-30 140,-30 42,-4 98,-31 155,-31 40,-1 20,5 46,-8 40,-21 55,-16 103,-30 104,-29 203,-47 316,-74 -2,-54 1,-127 2,-184 1,-63 2,-127 1,-190 -26,22 -11,26 -29,53 z"
         id="path71"
         inkscape:connector-curvature="0"
         style="fill:#ffffff;fill-opacity:0.20192307" /><path
         class="fil0"
         d="m 7151,10752 c -52,17 -176,54 -179,53 0,0 -2,-104 -2,-104 0,0 137,-41 169,-50 11,33 12,101 12,101 z m -180,-72 c -35,14 -201,74 -220,74 l 0,15 c 1,0 170,-50 195,-60 0,3 -2,106 -2,106 0,0 -168,56 -168,56 0,0 3,52 3,52 130,-34 273,-101 418,-140 7,-2 47,78 47,78 0,0 -13,4 -53,15 l -174,52 c 0,0 -2,28 -2,28 3,0 275,-82 276,-78 0,0 42,70 42,70 0,0 -52,19 -115,39 -7,5 -1,-1 -13,5 l -18,12 14,11 c 6,3 -3,-6 12,3 47,-15 144,-50 189,-49 l 3,-8 c -10,-11 -1,7 -6,-12 2,8 -105,-235 -105,-235 0,0 26,-13 104,-38 1,-50 4,-96 3,-145 -123,36 -308,103 -430,149 z"
         id="path73"
         inkscape:connector-curvature="0"
         style="fill:#ffffff;fill-opacity:0.20192307" /><path
         class="fil0"
         d="m 17771,9588 c 223,6 327,9 327,9 1,-1 3,-93 6,-246 l -215,-12 c -59,-6 -46,4 -46,-9 l -73,0 1,258 z"
         id="path75"
         inkscape:connector-curvature="0"
         style="fill:#ffffff;fill-opacity:0.20192307" /><path
         class="fil0"
         d="m 10979,9679 c 7,0 20,2 31,1 136,-5 523,-27 602,-29 5,-108 6,-347 6,-425 -7,5 -412,285 -482,338 -29,21 -128,95 -157,115 z"
         id="path77"
         inkscape:connector-curvature="0"
         style="fill:#ffffff;fill-opacity:0.20192307" /><polygon
         class="fil0"
         points="11950,8766 11959,8508 11636,8522 11636,8781 "
         id="polygon79"
         style="fill:#ffffff;fill-opacity:0.20192307" /><path
         class="fil0"
         d="m 9439,10548 c 194,6 369,-14 558,-31 1,-94 5,-182 5,-272 0,-104 -4,-228 -3,-344 0,-231 1,-446 2,-676 8,-196 9,-35 -10,-118 l -540,43 -12,1398 z"
         id="path81"
         inkscape:connector-curvature="0"
         style="fill:#ffffff;fill-opacity:0.20192307" /><path
         class="fil0"
         d="m 23248,11971 -11,-4 -3,39 c 18,14 15,14 32,16 15,14 12,-30 12,28 32,8 146,39 175,40 51,1 -12,-2 35,-10 12,-2 32,4 47,9 31,9 62,9 47,65 l 39,23 c 20,21 1,22 37,30 -16,20 23,19 -40,18 9,0 17,6 26,12 l -1,50 52,1 c -3,-19 1,-71 -8,-79 l -30,-14 c 31,-50 134,-81 216,-66 7,-12 2,4 5,-13 1,-4 1,-14 2,-17 0,-13 -1,-26 -2,-40 l -540,-134 -2,67 -88,-21 z"
         id="path83"
         inkscape:connector-curvature="0"
         style="fill:#ffffff;fill-opacity:0.20192307" /><path
         class="fil0"
         d="m 11591,11238 -4,504 3,-5 c 20,-41 29,-423 30,-502 l -1,-231 310,-4 c 1,0 0,0 0,0 3,1 0,24 0,24 2,1 39,-4 41,-3 0,-2 4,-29 4,-29 l 1046,9 0,-69 c -36,-13 -869,10 -1038,6 l 3,-219 772,-17 12,2 c 90,-2 596,-5 601,-6 7,-3 -525,-4 -612,-8 2,-36 5,-231 5,-274 -265,8 -549,12 -817,17 0,0 0,42 0,42 5,0 20,-1 29,0 l 0,-11 746,-11 0,220 c -165,3 -742,19 -746,16 0,0 0,-214 0,-214 -4,-1 -29,0 -29,0 -2,79 -5,449 -5,503 l -337,4 47,0 c 0,0 -3,-774 -3,-774 54,-1 75,-15 134,-15 25,-1 178,-4 182,-7 1503,-39 157,3 -356,2 l 4,-299 11,-211 -11,4 c 0,2 -12,690 -14,778 -7,258 -7,520 -7,778 z"
         id="path85"
         inkscape:connector-curvature="0"
         style="fill:#ffffff;fill-opacity:0.20192307" /><path
         class="fil0"
         d="m 9195,11399 -1,266 -219,-7 11,-269 209,10 z m -94,-325 96,2 -1,293 -212,-4 8,-291 109,0 z m 112,615 15,0 c 0,0 0,-29 0,-47 0,-24 1,-478 3,-767 0,0 39,-1 39,-1 0,0 4,738 -9,809 l 32,-1 8,-292 c 356,-14 698,7 1054,19 0,0 1,-57 1,-57 -274,-3 -789,-5 -1057,-4 l 5,-267 c 25,-5 775,2 903,3 l 143,0 -6,-8 -24,-1 -100,-2 -211,-3 -335,-6 1,-135 1,-159 c 0,0 -19,0 -19,0 -2,73 -8,265 -5,291 0,0 -302,1 -350,0 -3,-85 -2,-136 -1,-224 l -104,0 c 0,0 -1,177 -4,222 -36,4 -184,-6 -188,-8 -2,-3 3,-288 3,-288 l 349,4 427,4 568,11 c 0,0 2,-40 2,-40 -27,-11 -1321,-19 -1402,-16 0,0 -15,958 -15,958 l 276,5 z"
         id="path87"
         inkscape:connector-curvature="0"
         style="fill:#ffffff;fill-opacity:0.20192307" /><path
         class="fil0"
         d="m 11621,10180 2,28 c 0,0 770,-4 900,-6 2,56 0,220 0,220 l 36,0 c 0,-54 2,-158 1,-222 0,0 575,-12 575,-12 l 2,192 29,-1 -1,-193 646,-10 -4,179 c 0,0 29,-1 29,-1 0,-41 3,-179 3,-179 101,-1 201,-1 302,-6 0,0 -2,-15 -1,-27 0,0 -760,8 -880,10 -546,8 -1092,21 -1639,28 z"
         id="path89"
         inkscape:connector-curvature="0"
         style="fill:#ffffff;fill-opacity:0.20192307" /><path
         class="fil0"
         d="m 23819,11779 52,-1 c -1,42 1,48 7,80 l -59,1 0,-80 z m -368,-156 104,42 c 29,9 84,22 102,28 l 212,3 -3,77 c -26,0 -51,1 -76,1 -9,1 -27,0 -36,1 -39,4 -28,5 -32,12 l 88,-3 c 9,41 -2,86 -1,130 l 7,-38 64,-11 -2,77 c 2,1 7,7 9,11 107,-59 38,685 39,850 l 93,-8 c 31,3 2,-741 2,-812 -2,-60 -126,-327 -121,-374 -47,-11 -152,-3 -205,-3 l -44,-1 84,28 c 35,13 49,18 80,23 l -6,-38 c 16,-9 10,-8 33,-7 25,0 33,6 37,8 l -3,49 c -12,5 16,17 -22,0 5,8 6,12 12,18 -136,-5 -162,25 -222,-14 -3,-40 10,-42 13,-49 -10,-10 -6,-5 -12,-20 l -185,-2 c -48,-4 -32,-6 -41,1 23,15 16,-9 32,21 z"
         id="path91"
         inkscape:connector-curvature="0"
         style="fill:#ffffff;fill-opacity:0.20192307" /><path
         class="fil0"
         d="m 21173,12611 -76,-8 -68,-157 81,5 c 17,30 61,118 63,160 z m -95,-11 c -20,4 -52,5 -73,0 -30,-8 -77,-130 -83,-163 l 86,8 c 23,40 68,131 70,155 z m -102,6 c -92,-8 -84,14 -117,-65 -16,-40 -36,-72 -50,-112 l 94,12 c 13,14 61,134 73,165 z m 118,-172 -81,-13 -66,-157 81,4 c 22,45 58,116 66,166 z m -185,-13 -73,-170 92,10 c 28,58 48,98 70,161 l -89,-1 z m -15,0 -90,-12 c -7,-57 7,-98 -8,-157 50,7 74,101 98,169 z m 23,-181 c -120,-10 -91,2 -109,-36 -19,-41 -15,-72 -8,-120 l 47,3 c 16,21 63,119 70,153 z m -51,-149 c 110,-2 103,28 144,152 l -79,-5 -65,-147 z m -69,-203 c 73,-2 61,15 89,76 14,30 40,76 42,110 l -132,-26 1,-160 z m 140,864 c 14,16 51,10 69,4 -4,-26 -28,-87 -48,-98 -20,-12 -15,-3 -23,1 -11,5 -19,29 -36,-40 l 85,7 c 21,31 51,85 49,118 9,-8 37,21 -4,-64 -9,-20 -19,-34 -24,-56 l 85,5 51,108 c 24,35 4,38 21,5 l -51,-110 c 91,5 86,-4 109,42 14,28 41,80 46,112 8,-7 11,-3 21,-9 15,-12 8,-7 7,-20 -1,-24 -4,16 -5,-20 -42,-11 -27,-24 -60,-89 l -131,-276 c -58,-128 -113,-249 -171,-368 -30,-62 -51,-128 -81,-191 -44,-92 -27,-139 -25,-246 2,-92 2,-183 3,-274 1,-70 -5,-197 7,-258 l -43,-5 c -1,147 5,801 -10,1060 -5,88 2,173 0,258 -41,364 3,312 15,266 l 41,1 c 16,1 28,2 44,3 l 59,134 z"
         id="path93"
         inkscape:connector-curvature="0"
         style="fill:#ffffff;fill-opacity:0.20192307" /><path
         class="fil0"
         d="m 22799,12025 c 5,-1 -129,-62 -136,-67 0,0 79,-74 87,-72 0,0 313,73 318,73 0,0 -265,65 -269,66 z m -147,-60 c 11,16 24,15 65,50 20,18 50,28 66,51 l 31,-3 163,-43 197,-57 c 8,-13 10,3 -1,-14 -42,4 -377,-81 -447,-98 2,54 -42,51 -84,34 l 3,-54 -238,-54 -6,139 c 60,11 198,30 247,49 1,0 3,-1 4,0 z"
         id="path95"
         inkscape:connector-curvature="0"
         style="fill:#ffffff;fill-opacity:0.20192307" /><path
         class="fil0"
         d="m 14785,9743 c 15,10 12,-16 13,27 l 9,-6 c 0,44 -11,119 -2,155 l 10,0 2,-147 c 1,-7 2,-14 4,-20 5,-15 -1,-4 8,-15 l 226,272 c 10,11 21,23 29,38 l 144,171 c 8,10 10,10 17,19 24,28 132,130 132,130 0,0 62,0 62,0 -6,-11 -92,-44 -617,-695 0,0 -35,54 -37,71 z"
         id="path97"
         inkscape:connector-curvature="0"
         style="fill:#ffffff;fill-opacity:0.20192307" /><path
         class="fil0"
         d="m 23120,11698 c 0,0 0,-58 0,-85 0,3 155,55 155,55 l 0,17 -58,-18 c 0,0 -4,56 -4,56 l -93,-25 z m 217,-104 c -17,9 -54,-9 -80,-14 0,28 -3,40 -1,65 0,0 -127,-49 -127,-49 0,0 4,-118 5,-85 37,7 86,32 119,44 63,22 70,13 84,39 z m -217,211 c 0,-19 1,-75 0,-94 l 142,54 c 47,4 35,-3 87,15 58,4 238,76 316,81 -14,-5 -15,-7 -27,-12 l -26,-11 -140,-39 -85,-21 c -42,-14 -26,1 -32,-20 -19,13 -53,4 -73,-1 7,-110 -22,-131 55,-163 l 67,19 -2,28 c 10,-10 1,-1 8,-15 1,-1 5,-6 5,-9 1,-2 2,-3 2,-4 l 34,10 c -16,-30 -9,-6 -32,-21 9,-7 -7,-5 41,-1 l 185,2 9,2 0,-10 c -32,-1 -230,-78 -273,-93 -50,-17 -230,-86 -269,-88 l -4,383 12,8 z"
         id="path99"
         inkscape:connector-curvature="0"
         style="fill:#ffffff;fill-opacity:0.20192307" /><path
         class="fil0"
         d="m 4608,12633 c -26,-3 -50,13 -52,-42 1,22 5,-23 2,18 -2,23 -6,26 -15,35 -9,-10 -6,-2 -10,-22 l 6,-90 c 14,1 29,0 43,-2 18,-1 34,-6 54,-1 l 0,76 c -6,4 -13,6 -15,8 -18,16 -8,0 -13,20 z m -30,-455 c 0,56 -4,119 -1,174 2,53 14,127 2,178 -20,-1 -35,9 -43,-8 -7,-12 -2,-45 -1,-60 1,-20 2,-41 4,-61 0,-3 1,-31 1,-31 -7,-30 3,-13 -19,-31 1,44 2,91 4,135 l -6,100 c -1,1 -2,3 -2,4 0,1 -3,7 -4,9 21,-2 11,11 12,67 l 71,-7 c 20,-8 10,-10 12,-14 16,-1 36,-11 36,-11 6,1 1,-19 9,9 4,13 1,15 0,28 9,-12 107,-464 117,-517 l -192,36 z"
         id="path101"
         inkscape:connector-curvature="0"
         style="fill:#ffffff;fill-opacity:0.20192307" /><path
         class="fil0"
         d="m 18090,12857 c 29,0 59,0 88,0 3,-207 1,-521 0,-729 -89,-5 0,0 -89,-5 1,147 1,714 1,734 z"
         id="path103"
         inkscape:connector-curvature="0"
         style="fill:#ffffff;fill-opacity:0.20192307" /><path
         class="fil0"
         d="m 19237,12218 335,3 -9,235 -330,-8 4,-230 z m 10,-285 c 129,3 329,15 329,15 l -4,228 -330,-15 5,-228 z m 12,-311 315,17 -2,272 c -72,-6 -262,-15 -322,-15 3,-103 9,-274 9,-274 z m -58,281 c -11,269 -23,791 -25,856 2,0 265,8 371,9 l 0,267 43,1 23,2 c 0,0 -5,-281 -5,-281 l -59,-27 -320,-4 c -1,-30 1,-237 1,-237 l 326,7 -7,234 59,27 27,-1385 c 0,0 -414,-42 -414,-42 -8,191 -13,383 -20,573 z"
         id="path105"
         inkscape:connector-curvature="0"
         style="fill:#ffffff;fill-opacity:0.20192307" /><path
         class="fil0"
         d="m 5591,10093 c 0,0 2,314 1,391 l -31,-2 0,10 53,2 2,-193 c 3,-32 -2,-13 7,-22 5,-19 6,-17 32,-32 36,-21 100,-64 132,-76 l -5,53 c 10,12 5,-3 8,23 l 1,158 c 4,19 0,-4 6,22 l 17,-125 2,-331 0,-31 c -36,17 -209,127 -225,153 z"
         id="path107"
         inkscape:connector-curvature="0"
         style="fill:#ffffff;fill-opacity:0.20192307" /><path
         class="fil0"
         d="m 10509,9979 5,530 c 5,-3 53,1 53,-7 1,-77 -5,-413 -2,-479 139,-90 346,-224 515,-346 l -101,2 c -14,12 -369,237 -470,300 z"
         id="path109"
         inkscape:connector-curvature="0"
         style="fill:#ffffff;fill-opacity:0.20192307" /><path
         class="fil0"
         d="m 10454,12101 c 39,1 89,-2 89,-2 -18,-147 19,-1556 22,-1558 3,-2 129,20 214,45 l 1,685 1,-6 c -4,162 -1,1619 -1,1619 16,6 94,3 94,3 1,-18 -21,-2329 -21,-2329 0,0 -275,-58 -297,-56 -2,0 -113,48 -113,48 0,0 11,1532 11,1551 z"
         id="path111"
         inkscape:connector-curvature="0"
         style="fill:#ffffff;fill-opacity:0.20192307" /><path
         class="fil0"
         d="m 14757,10362 c -82,-14 -429,6 -465,-6 5,2 -1,10 15,-9 l 45,-55 c 1,-1 4,-6 5,-7 l 77,-107 c -29,5 -53,17 -67,31 13,4 10,-20 50,-52 31,10 36,10 43,27 4,8 -3,7 5,21 15,28 -32,65 -81,130 l -6,-27 c -13,10 -39,35 -48,48 18,1 20,-1 36,0 12,1 28,2 43,3 42,3 46,-4 80,-5 43,-3 121,9 154,-1 -5,-25 6,-15 -19,-18 -30,-3 -15,9 -36,3 -17,-5 -18,-11 -39,-3 -1,-32 -13,-66 29,-106 -25,-9 5,8 -31,1 -67,-13 -55,-23 -39,-51 4,-8 5,-8 9,-16 8,-16 2,9 7,-17 l 99,3 c 31,3 131,12 145,-10 -27,-14 -118,-6 -154,-6 -27,0 -53,0 -80,0 -40,1 -52,-5 -86,-9 -13,1 -6,4 -9,-6 -19,10 -16,11 -31,27 l -90,94 c -27,28 -104,102 -119,128 l 530,1 c 23,0 16,3 28,-6 z"
         id="path113"
         inkscape:connector-curvature="0"
         style="fill:#ffffff;fill-opacity:0.20192307" /><path
         class="fil0"
         d="m 20479,11044 c 3,38 2,76 2,114 1,93 -14,298 -15,301 -43,294 7,182 -20,435 -32,0 -47,-6 -69,9 105,-7 94,46 96,-206 l 81,5 c -21,-18 -31,-10 -67,-23 l 5,-188 117,15 -6,196 -37,-3 c 15,15 0,9 27,14 9,2 21,1 30,0 l 0,-200 109,27 -1,178 c -9,6 11,8 -30,6 13,18 0,8 23,15 17,5 19,3 36,2 -53,-183 5,-650 2,-655 0,0 -266,-46 -283,-42 z"
         id="path115"
         inkscape:connector-curvature="0"
         style="fill:#ffffff;fill-opacity:0.20192307" /><path
         class="fil0"
         d="m 16688,11562 c 0,0 212,1 212,1 0,-1 1,-33 1,-33 0,0 -132,-1 -150,-1 0,0 1,-166 6,-252 l 207,6 c -3,100 -9,223 -9,249 0,0 -54,-2 -54,-2 0,0 -1,33 -1,33 0,0 364,6 541,10 0,0 2,-198 2,-198 0,0 -382,-6 -382,-6 1,19 -8,155 -7,160 0,0 -57,-1 -57,-1 0,0 2,-168 4,-243 0,0 63,0 63,0 l -1,46 c 22,0 63,0 63,0 0,0 1,-61 1,-61 l 511,4 0,249 c 0,0 -164,-6 -196,-1 l -1,51 c 73,7 163,6 236,7 0,0 7,-339 9,-344 2,-3 -915,-17 -998,-19 -5,16 3,245 0,345 z"
         id="path117"
         inkscape:connector-curvature="0"
         style="fill:#ffffff;fill-opacity:0.20192307" /><path
         class="fil0"
         d="m 13133,11004 c 19,-4 149,-50 153,-51 0,0 -304,-247 -304,-247 0,0 -213,-2 -213,-2 85,83 268,216 364,300 z"
         id="path119"
         inkscape:connector-curvature="0"
         style="fill:#ffffff;fill-opacity:0.20192307" /><path
         class="fil0"
         d="m 10805,10558 c 0,15 1,44 1,59 37,-7 790,-105 790,-108 0,-2 2,-66 2,-66 -197,29 -591,82 -793,115 z"
         id="path121"
         inkscape:connector-curvature="0"
         style="fill:#ffffff;fill-opacity:0.20192307" /><path
         class="fil0"
         d="m 18457,12188 c -1,-36 -1,-270 -2,-295 1,0 87,11 87,11 0,0 -3,241 -2,289 l -83,-5 z m -111,-304 c 10,0 77,5 79,6 1,48 5,291 5,296 l -84,-7 0,-295 z m -34,662 226,6 c 0,33 2,228 3,266 l -514,0 c 0,18 0,31 0,31 l 543,7 -2,-335 c 0,0 19,0 -227,-5 l 1,-303 231,14 4,-668 -46,-3 c -1,100 2,202 -2,301 l -188,-15 c 0,-70 1,-297 0,-302 0,0 -23,-1 -29,-2 l 0,1008 z"
         id="path123"
         inkscape:connector-curvature="0"
         style="fill:#ffffff;fill-opacity:0.20192307" /><path
         class="fil0"
         d="m 14793,10368 470,3 1,-12 c -38,1 -74,-9 -105,10 l -30,-49 c -45,9 -29,-3 -55,16 -9,-10 0,4 -6,-11 -3,-6 -2,-9 -6,-17 -20,9 -21,9 -50,12 -13,-24 -16,-27 -17,-66 43,-33 63,-3 110,-15 l 21,-11 c -18,-16 2,-7 -68,-17 -14,-1 -13,0 -32,-2 -95,-14 -119,-7 -216,-8 l -8,117 c -3,30 -10,19 -9,50 z"
         id="path125"
         inkscape:connector-curvature="0"
         style="fill:#ffffff;fill-opacity:0.20192307" /><path
         class="fil0"
         d="m 5293,10480 70,-4 -14,-48 c 27,-8 51,-27 73,-40 15,-9 59,-37 69,-39 l -3,53 c 15,31 -16,41 24,80 l 4,-306 c -3,-54 10,-29 -16,-31 -42,33 -127,79 -174,116 l -2,151 -41,0 10,68 z"
         id="path127"
         inkscape:connector-curvature="0"
         style="fill:#ffffff;fill-opacity:0.20192307" /><path
         class="fil0"
         d="m 9990,10519 c 28,-1 405,-14 454,-16 37,-1 71,-4 104,-2 l 4,-78 6,-444 c -8,-1 -49,0 -49,0 0,0 -437,7 -437,7 4,13 2,330 2,330 0,0 408,1 438,0 0,0 -7,69 -7,69 -52,4 -281,7 -281,7 0,0 -183,96 -234,127 z"
         id="path129"
         inkscape:connector-curvature="0"
         style="fill:#ffffff;fill-opacity:0.20192307" /><path
         class="fil0"
         d="m 17590,11024 c 0,-9 0,-49 0,-49 0,0 -302,-16 -302,-14 0,-3 0,-311 0,-311 1,-2 286,11 306,3 0,0 -4,371 -4,371 l 61,1 c 0,0 5,-411 5,-411 0,0 -425,-14 -425,-14 0,0 -2,413 -2,413 2,1 358,11 361,11 z"
         id="path131"
         inkscape:connector-curvature="0"
         style="fill:#ffffff;fill-opacity:0.20192307" /><path
         class="fil0"
         d="m 20677,10943 -2,101 c 34,1 355,37 356,37 l 4,-292 -2,146 -18,-1 c -40,1 -301,8 -338,9 z"
         id="path133"
         inkscape:connector-curvature="0"
         style="fill:#ffffff;fill-opacity:0.20192307" /><path
         class="fil0"
         d="m 11581,12869 368,-4 -1,-1386 c -33,63 -335,148 -361,263 4,229 4,970 -6,1127 z"
         id="path135"
         inkscape:connector-curvature="0"
         style="fill:#ffffff;fill-opacity:0.20192307" /><path
         class="fil0"
         d="m 22393,12042 -2,26 c 0,0 186,35 244,37 -1,17 0,33 0,50 1,42 -1,30 -8,38 2,1 4,-1 5,2 4,6 6,1 11,3 31,6 130,24 149,17 l 3,-139 14,-10 c 1,0 3,-2 5,-3 l -31,3 c -16,-23 -46,-33 -66,-51 -41,-35 -54,-34 -65,-50 -11,-5 -18,-7 -18,-7 -1,6 6,31 5,61 -1,23 -1,45 1,68 -1,-2 -86,-13 -86,-13 0,-6 -4,-127 -5,-130 0,0 -21,-4 -21,-4 2,41 5,130 5,130 0,-2 -140,-28 -140,-28 z"
         id="path137"
         inkscape:connector-curvature="0"
         style="fill:#ffffff;fill-opacity:0.20192307" /><path
         class="fil0"
         d="m 7714,12398 107,2 2,-470 c 8,-72 5,-69 76,-73 44,68 26,429 20,535 l 52,27 12,-545 c 205,-29 218,-17 214,160 -4,132 0,264 -7,396 l 182,5 c 1,-578 22,-717 20,-16 l 61,26 c 9,-162 -27,-403 21,-535 57,-21 169,-3 252,5 l -1,540 73,4 c 9,-187 -36,-494 46,-626 l -1132,-83 2,648 z"
         id="path139"
         inkscape:connector-curvature="0"
         style="fill:#ffffff;fill-opacity:0.20192307" /><path
         class="fil0"
         d="m 14443,10115 331,-1 c -24,-60 -3,-58 -7,-116 l -9,7 c -25,24 5,7 -12,36 -13,22 0,11 -21,19 0,-1 -1,-4 -1,-3 -1,1 -2,-3 -2,-3 l -17,-49 c -48,1 -56,-27 -103,40 -17,24 -19,20 -38,20 0,-26 1,-34 15,-51 23,-27 214,-220 215,-223 0,0 -28,-26 -28,-26 -57,57 -313,329 -323,350 z"
         id="path141"
         inkscape:connector-curvature="0"
         style="fill:#ffffff;fill-opacity:0.20192307" /><path
         class="fil0"
         d="m 23662,11769 c -11,20 8,7 -19,11 -21,3 -1,0 -48,-14 l -65,-19 c 3,16 1,32 12,36 8,3 19,-14 21,-23 1,-4 2,-4 4,-6 l 9,30 c 19,-3 7,-3 14,-6 13,-4 1,-5 12,-3 10,18 5,36 10,63 l 26,11 c 12,5 13,7 27,12 -78,-5 -258,-77 -316,-81 8,18 36,18 88,35 l 286,80 -1,-7 0,-101 c 4,-7 -7,-8 32,-12 9,-1 27,0 36,-1 25,0 50,-1 76,-1 l 3,-77 -212,-3 c -3,34 -1,2 -1,24 0,3 0,15 0,17 1,24 -2,15 6,35 z"
         id="path143"
         inkscape:connector-curvature="0"
         style="fill:#ffffff;fill-opacity:0.20192307" /><path
         class="fil0"
         d="m 23654,11595 0,10 -3,0 18,-36 c 129,-80 261,104 150,-170 -37,-4 -111,2 -149,-10 l -1,203 c -8,5 13,10 -15,3 z"
         id="path145"
         inkscape:connector-curvature="0"
         style="fill:#ffffff;fill-opacity:0.20192307" /><path
         class="fil0"
         d="m 21394,12401 c 59,4 356,-8 423,12 l -7,98 12,0 5,-111 c -133,-15 -299,-16 -435,-17 -2,2 -5,5 -6,6 0,1 1,7 1,6 -1,-2 5,4 7,6 z"
         id="path147"
         inkscape:connector-curvature="0"
         style="fill:#ffffff;fill-opacity:0.20192307" /><path
         class="fil0"
         d="m 22391,12259 -2,10 7,1 246,32 c -1,46 1,55 6,91 l -251,-28 -8,-1 -2,16 c 137,16 272,28 405,38 l 3,-100 c -52,-12 -135,-13 -182,-26 0,0 -2,-11 -1,-33 0,-12 2,-25 3,-37 l -35,-5 -5,68 c -38,0 -34,5 -29,-39 3,-25 14,-37 -8,-48 0,1 -1,3 -2,4 0,1 -1,3 -1,4 l 2,75 -74,-12 -1,-71 -37,-6 -1,70 -33,-3 z"
         id="path149"
         inkscape:connector-curvature="0"
         style="fill:#ffffff;fill-opacity:0.20192307" /><path
         class="fil0"
         d="m 5089,10419 c 4,45 -4,84 1,130 72,-22 82,-77 172,-77 l 3,-163 c -51,16 -138,76 -176,110 z"
         id="path151"
         inkscape:connector-curvature="0"
         style="fill:#ffffff;fill-opacity:0.20192307" /><path
         class="fil0"
         d="m 8525,10604 4,52 c 383,-27 1694,-88 2036,-115 l -9,-39 c -111,-19 -1901,93 -2031,102 z"
         id="path153"
         inkscape:connector-curvature="0"
         style="fill:#ffffff;fill-opacity:0.20192307" /><path
         class="fil0"
         d="m 18643,12506 c 120,6 251,13 251,13 0,0 -2,301 -2,301 -11,0 -255,-11 -255,-11 0,0 7,-251 6,-303 z m -37,337 322,16 5,-374 c -81,-3 -312,-14 -322,-15 l -5,373 z"
         id="path155"
         inkscape:connector-curvature="0"
         style="fill:#ffffff;fill-opacity:0.20192307" /><path
         class="fil0"
         d="m 18649,11636 c 119,6 251,13 251,13 0,0 -3,301 -3,301 -11,0 -255,-11 -255,-11 0,0 7,-251 7,-303 z m -38,337 323,16 4,-374 c -81,-3 -312,-14 -321,-15 l -6,373 z"
         id="path157"
         inkscape:connector-curvature="0"
         style="fill:#ffffff;fill-opacity:0.20192307" /><path
         class="fil0"
         d="m 23392,11665 -15,27 c 0,0 1,2 1,2 1,24 -4,45 -23,64 6,21 -10,6 32,20 l 85,21 140,39 c -5,-27 0,-45 -10,-63 -11,-2 1,-1 -12,3 -7,3 5,3 -14,6 l -9,-30 c -2,2 -3,2 -4,6 -2,9 -13,26 -21,23 -11,-4 -9,-20 -12,-36 l 65,19 c 47,14 27,17 48,14 27,-4 8,9 19,-11 l -66,-29 c -72,-16 -39,-13 -69,-21 -41,-10 -14,-10 -43,-12 0,-6 1,-26 1,-31 l -12,-30 -13,30 c -1,1 0,21 0,25 l -68,-19 0,-17 z"
         id="path159"
         inkscape:connector-curvature="0"
         style="fill:#ffffff;fill-opacity:0.20192307" /><path
         class="fil0"
         d="m 7556,12650 c 4,-22 -3,-17 8,-41 l 8,-13 c -26,-73 17,-121 -35,-128 l -95,-1 -33,-24 -2,199 149,8 z"
         id="path161"
         inkscape:connector-curvature="0"
         style="fill:#ffffff;fill-opacity:0.20192307" /><path
         class="fil0"
         d="m 21718,11645 22,2 3,-39 c 2,-38 5,-99 5,-125 -26,1 -143,-5 -170,-11 0,0 6,55 0,125 49,2 105,11 143,12 l -3,36 z"
         id="path163"
         inkscape:connector-curvature="0"
         style="fill:#ffffff;fill-opacity:0.20192307" /><path
         class="fil0"
         d="m 15548,9856 37,-1 c -3,-70 1,-197 7,-268 l 246,16 c -5,-19 4,-14 -25,-15 -119,-7 -210,-42 -266,-2 l 1,270 z"
         id="path165"
         inkscape:connector-curvature="0"
         style="fill:#ffffff;fill-opacity:0.20192307" /><path
         class="fil0"
         d="m 7515,11002 36,1 4,-275 179,11 c 16,58 7,204 5,272 l 25,-5 2,-259 c 54,-6 294,6 333,21 l 12,53 c 3,67 -6,141 2,219 l 36,2 5,-326 c -98,-20 -214,-24 -312,-28 -96,-4 -201,-14 -303,-11 -43,68 -19,228 -24,325 z"
         id="path167"
         inkscape:connector-curvature="0"
         style="fill:#ffffff;fill-opacity:0.20192307" /><path
         class="fil0"
         d="m 4810,11120 c 12,-54 72,-340 78,-418 -42,4 -694,560 -694,567 -2,21 613,-136 616,-149 z"
         id="path169"
         inkscape:connector-curvature="0"
         style="fill:#ffffff;fill-opacity:0.20192307" /><polygon
         class="fil0"
         points="18178,11650 18090,11634 18089,11857 18178,11865 "
         id="polygon171"
         style="fill:#ffffff;fill-opacity:0.20192307" /><path
         class="fil0"
         d="m 18089,11616 90,15 0,-214 c -87,-18 -65,-13 -89,-18 l -1,217 z"
         id="path173"
         inkscape:connector-curvature="0"
         style="fill:#ffffff;fill-opacity:0.20192307" /><path
         class="fil0"
         d="m 4886,10548 2,125 c 29,-7 119,-69 149,-86 l 1,-129 c -48,7 -107,68 -152,90 z"
         id="path175"
         inkscape:connector-curvature="0"
         style="fill:#ffffff;fill-opacity:0.20192307" /><polygon
         class="fil0"
         points="18178,12109 18179,11887 18089,11877 18090,12103 "
         id="polygon177"
         style="fill:#ffffff;fill-opacity:0.20192307" /><path
         class="fil0"
         d="m 18197,11113 c 0,0 589,77 596,77 -23,-62 -497,-798 -594,-938 -2,65 -2,861 -2,861 z"
         id="path179"
         inkscape:connector-curvature="0"
         style="fill:#ffffff;fill-opacity:0.20192307" /><path
         class="fil0"
         d="m 10540,12056 3,43 130,-1 c -1,3 -20,683 -20,683 0,0 53,-4 72,0 l 10,-726 c 0,0 -195,1 -195,1 z"
         id="path181"
         inkscape:connector-curvature="0"
         style="fill:#ffffff;fill-opacity:0.20192307" /><path
         class="fil0"
         d="m 18217,11417 c 0,0 229,24 229,24 0,0 -1,-173 1,-208 0,0 -229,-44 -229,-44 l -1,228 z"
         id="path183"
         inkscape:connector-curvature="0"
         style="fill:#ffffff;fill-opacity:0.20192307" /><path
         class="fil0"
         d="m 23822,12704 0,-113 c -35,-13 -98,-16 -138,-18 l -440,-24 9,120 c 155,12 411,30 569,35 z"
         id="path185"
         inkscape:connector-curvature="0"
         style="fill:#ffffff;fill-opacity:0.20192307" /><polygon
         class="fil0"
         points="7170,12351 6991,12351 6991,12617 7172,12617 "
         id="polygon187"
         style="fill:#ffffff;fill-opacity:0.20192307" /><path
         class="fil0"
         d="m 21748,11347 7,-2 105,13 16,-3 c 7,-55 12,-86 12,-86 0,0 30,5 98,12 l 57,15 -2,-24 -128,-24 c -40,-9 -113,-19 -162,-25 0,0 -3,115 -3,124 z"
         id="path189"
         inkscape:connector-curvature="0"
         style="fill:#ffffff;fill-opacity:0.20192307" /><path
         class="fil0"
         d="m 7294,12016 c -12,46 -8,80 -8,127 l 147,0 0,-146 c -48,-3 -85,19 -139,19 z"
         id="path191"
         inkscape:connector-curvature="0"
         style="fill:#ffffff;fill-opacity:0.20192307" /><path
         class="fil0"
         d="m 18763,11485 c 34,8 100,20 169,32 -2,-47 2,-149 2,-190 0,0 -134,-27 -171,-31 -1,32 0,151 0,189 z"
         id="path193"
         inkscape:connector-curvature="0"
         style="fill:#ffffff;fill-opacity:0.20192307" /><path
         class="fil0"
         d="m 18491,11452 c 48,8 126,14 223,27 -2,-47 -2,-149 -2,-191 0,0 -220,-40 -220,-40 -2,21 -1,166 -1,204 z"
         id="path195"
         inkscape:connector-curvature="0"
         style="fill:#ffffff;fill-opacity:0.20192307" /><path
         class="fil0"
         d="m 21899,12775 c 30,-15 90,3 127,-4 l 5,-114 c -76,-6 -75,-24 -45,14 l -104,-1 c 0,25 -3,26 4,47 l 13,58 z"
         id="path197"
         inkscape:connector-curvature="0"
         style="fill:#ffffff;fill-opacity:0.20192307" /><path
         class="fil0"
         d="m 7130,12868 131,0 c -3,-58 -3,-84 -18,-138 l -111,6 -2,132 z"
         id="path199"
         inkscape:connector-curvature="0"
         style="fill:#ffffff;fill-opacity:0.20192307" /><path
         class="fil0"
         d="m 6982,12863 85,-6 c -4,-15 -7,-18 -6,-27 11,20 16,13 47,14 8,-13 4,1 11,-27 l 0,-81 c -52,-5 -81,-4 -136,-15 l -1,142 z"
         id="path201"
         inkscape:connector-curvature="0"
         style="fill:#ffffff;fill-opacity:0.20192307" /><path
         class="fil0"
         d="m 23357,12496 c 38,4 142,21 173,16 l 0,-73 c -37,-10 -119,-23 -155,-16 l -20,5 2,68 z"
         id="path203"
         inkscape:connector-curvature="0"
         style="fill:#ffffff;fill-opacity:0.20192307" /><path
         class="fil0"
         d="m 21754,11088 c 23,-5 100,15 132,18 l 0,-115 c -20,8 -111,0 -131,-10 l -1,107 z"
         id="path205"
         inkscape:connector-curvature="0"
         style="fill:#ffffff;fill-opacity:0.20192307" /><path
         class="fil0"
         d="m 23872,12374 c -2,-87 4,-92 4,-150 l -159,0 c 11,28 -6,113 0,138 84,5 96,7 155,12 z"
         id="path207"
         inkscape:connector-curvature="0"
         style="fill:#ffffff;fill-opacity:0.20192307" /><path
         class="fil0"
         d="m 4395,12777 c 38,-11 35,-30 50,-57 l -10,-196 c -59,69 -233,-81 -304,-121 -65,-37 -53,-53 -103,-8 l -10,-63 3,-20 -79,-16 c -2,190 4,316 -35,407 82,4 478,77 488,74 z"
         id="path209"
         inkscape:connector-curvature="0"
         style="fill:#ffffff;fill-opacity:0.20192307" /><path
         class="fil0"
         d="m 3947,12102 c 96,-8 387,-66 464,-118 -6,-197 -38,-170 -99,-356 l -54,-107 c -6,126 23,289 -28,366 -15,-61 -20,-148 -33,-226 l -63,-191 -183,55 -4,577 z"
         id="path211"
         inkscape:connector-curvature="0"
         style="fill:#ffffff;fill-opacity:0.20192307" /><path
         class="fil0"
         d="m 23345,12382 156,14 -1,-74 c -35,-9 -102,-21 -135,-15 l -18,5 -2,70 z"
         id="path213"
         inkscape:connector-curvature="0"
         style="fill:#ffffff;fill-opacity:0.20192307" /><path
         class="fil0"
         d="m 21744,11465 c 34,-4 90,13 131,12 -3,-20 -4,-88 -4,-88 69,-7 47,25 123,13 -54,-19 -200,-43 -257,-45 l 9,21 c 6,27 -8,54 -2,87 z"
         id="path215"
         inkscape:connector-curvature="0"
         style="fill:#ffffff;fill-opacity:0.20192307" /><path
         class="fil0"
         d="m 9892,12094 391,-2 8,-25 c -81,-14 -298,-1 -393,0 l -6,27 z"
         id="path217"
         inkscape:connector-curvature="0"
         style="fill:#ffffff;fill-opacity:0.20192307" /><path
         class="fil0"
         d="m 6989,12323 c 1,1 165,2 188,4 l -11,-205 c -123,-1 -190,1 -190,1 0,0 13,200 13,200 z"
         id="path219"
         inkscape:connector-curvature="0"
         style="fill:#ffffff;fill-opacity:0.20192307" /><polygon
         class="fil0"
         points="10281,10503 9908,10519 9906,10550 10282,10533 "
         id="polygon221"
         style="fill:#ffffff;fill-opacity:0.20192307" /><path
         class="fil0"
         d="m 6951,12498 -40,2 c -18,36 -4,128 -12,176 l 72,-5 c 0,-24 -5,-166 -20,-173 z"
         id="path223"
         inkscape:connector-curvature="0"
         style="fill:#ffffff;fill-opacity:0.20192307" /><path
         class="fil0"
         d="m 23713,12215 165,-3 c -2,-31 4,-48 -7,-72 -77,0 -137,13 -173,57 8,12 3,12 15,18 z"
         id="path225"
         inkscape:connector-curvature="0"
         style="fill:#ffffff;fill-opacity:0.20192307" /><path
         class="fil0"
         d="m 5700,10285 c -13,13 -5,4 -13,26 l -17,74 -7,-94 c -16,-1 -33,7 -37,-7 -1,-2 -2,-2 -4,-3 l 24,95 c 4,9 5,9 9,15 2,-24 9,-72 -1,-86 9,54 2,129 15,181 35,3 98,-26 115,-48 l -34,-1 3,-198 c -31,2 -9,-4 -19,12 20,29 11,157 10,199 l -50,24 6,-189 z"
         id="path227"
         inkscape:connector-curvature="0"
         style="fill:#ffffff;fill-opacity:0.20192307" /><path
         class="fil0"
         d="m 23244,12308 c 2,-72 1,-61 2,-76 34,5 -5,-4 58,8 l 168,30 0,-12 -30,-6 -74,-13 c -22,-3 -16,1 -30,-9 l -89,-13 c -2,-27 0,-50 0,-73 l 87,17 36,6 86,19 16,2 2,-11 -225,-47 c -1,-2 -21,-8 -21,-8 -1,21 1,53 0,69 0,36 -2,77 -3,114 l 17,3 z"
         id="path229"
         inkscape:connector-curvature="0"
         style="fill:#ffffff;fill-opacity:0.20192307" /><path
         class="fil0"
         d="m 5623,10279 -1,2 c 2,1 3,1 4,3 4,14 21,6 37,7 l 7,94 17,-74 c 8,-22 0,-13 13,-26 3,-21 -10,-3 14,-22 7,-6 14,-9 20,-12 10,-16 -12,-10 19,-12 15,-8 16,-11 29,-15 l 5,-53 c -32,12 -96,55 -132,76 -26,15 -27,13 -32,32 z"
         id="path231"
         inkscape:connector-curvature="0"
         style="fill:#ffffff;fill-opacity:0.20192307" /><path
         class="fil0"
         d="m 21982,11796 c 7,-4 9,-3 28,3 l 23,15 c 7,-21 5,-24 5,-46 0,-8 -1,-18 0,-25 l 8,-24 -1,-7 -7,-4 c -14,11 -31,0 -77,-7 -27,-5 -53,-8 -80,-14 3,30 7,47 72,54 l 28,2 1,53 z"
         id="path233"
         inkscape:connector-curvature="0"
         style="fill:#ffffff;fill-opacity:0.20192307" /><path
         class="fil0"
         d="m 15839,9853 43,2 c -5,-21 6,-249 11,-267 -35,2 -40,0 -41,31 -1,23 0,51 0,75 0,45 -16,118 -13,159 z"
         id="path235"
         inkscape:connector-curvature="0"
         style="fill:#ffffff;fill-opacity:0.20192307" /><path
         class="fil0"
         d="m 15264,10359 -1,12 c 169,-1 54,-8 40,-26 -9,-12 -13,-22 -23,-33 l -113,-126 c -1,-1 -2,-3 -3,-4 -2,-1 -4,-6 -5,-8 -13,-20 -14,-34 -44,-31 39,67 45,65 60,64 32,-3 -8,-9 13,0 14,37 -1,15 5,45 2,9 57,97 71,107 z"
         id="path237"
         inkscape:connector-curvature="0"
         style="fill:#ffffff;fill-opacity:0.20192307" /><polygon
         class="fil0"
         points="6955,12482 6947,12307 6905,12308 6905,12488 "
         id="polygon239"
         style="fill:#ffffff;fill-opacity:0.20192307" /><path
         class="fil0"
         d="m 21881,12288 c 15,-16 25,-11 79,-2 28,5 47,11 77,12 l 0,-100 c -19,-8 -35,-12 -62,-13 l 2,86 -91,-6 -8,-85 3,108 z"
         id="path241"
         inkscape:connector-curvature="0"
         style="fill:#ffffff;fill-opacity:0.20192307" /><path
         class="fil0"
         d="m 5363,10476 -6,0 c 29,-6 16,14 19,-17 26,19 -16,23 36,17 l 7,-42 c 38,-14 13,-17 47,-26 11,-3 13,-4 22,-6 l 3,-53 c -10,2 -54,30 -69,39 -22,13 -46,32 -73,40 l 14,48 z"
         id="path243"
         inkscape:connector-curvature="0"
         style="fill:#ffffff;fill-opacity:0.20192307" /><path
         class="fil0"
         d="m 23308,12423 2,-70 18,-5 c -2,-1 -4,-2 -5,-2 -1,-1 -3,-2 -5,-3 -1,0 -3,-1 -5,-2 -5,-1 -5,-1 -10,-3 -8,-1 -19,-2 -27,-3 -19,-1 -36,-3 -53,-5 l 0,82 85,11 z"
         id="path245"
         inkscape:connector-curvature="0"
         style="fill:#ffffff;fill-opacity:0.20192307" /><path
         class="fil0"
         d="m 22553,12593 46,2 35,2 c -3,-30 -2,-71 -9,-91 -25,-1 -34,-6 -57,0 l -14,5 -1,82 z"
         id="path247"
         inkscape:connector-curvature="0"
         style="fill:#ffffff;fill-opacity:0.20192307" /><path
         class="fil0"
         d="m 22037,12175 -5,-8 5,-93 -61,-13 1,96 c -25,-7 -71,-9 -103,-12 -1,0 0,4 -1,6 44,4 136,17 164,24 z"
         id="path249"
         inkscape:connector-curvature="0"
         style="fill:#ffffff;fill-opacity:0.20192307" /><path
         class="fil0"
         d="m 23039,12552 -3,-164 47,-10 c -3,-2 -7,-5 -10,-6 -32,-13 -56,-23 -198,-28 l 1,191 163,17 z"
         id="path251"
         inkscape:connector-curvature="0"
         style="fill:#ffffff;fill-opacity:0.20192307" /><path
         class="fil0"
         d="m 21962,11914 c 19,7 44,7 70,20 l 7,-87 c 2,-38 2,31 1,-12 l -3,-17 c -18,22 26,19 -35,12 -5,0 -19,-7 -20,-7 -2,16 -1,31 -2,49 -1,28 4,37 -18,42 z"
         id="path253"
         inkscape:connector-curvature="0"
         style="fill:#ffffff;fill-opacity:0.20192307" /><path
         class="fil0"
         d="m 6909,12293 31,0 -3,-154 c 0,0 -29,0 -29,0 0,-1 2,117 1,154 z"
         id="path255"
         inkscape:connector-curvature="0"
         style="fill:#ffffff;fill-opacity:0.20192307" /><path
         class="fil0"
         d="m 21974,12037 56,12 9,-92 -58,-11 c -6,35 5,55 -7,91 z"
         id="path257"
         inkscape:connector-curvature="0"
         style="fill:#ffffff;fill-opacity:0.20192307" /><path
         class="fil0"
         d="m 23649,12527 6,0 66,0 2,-57 -91,-7 c 4,15 2,17 5,34 5,34 -8,12 12,30 z"
         id="path259"
         inkscape:connector-curvature="0"
         style="fill:#ffffff;fill-opacity:0.20192307" /><path
         class="fil0"
         d="m 23742,11797 52,1 2,53 -56,6 2,-60 z m -20,91 15,4 c 2,-25 1,-24 23,-31 l 2,44 8,2 c 2,-35 -3,-31 8,-52 l 19,1 c 18,26 0,37 13,63 l -1,-5 c -1,-44 10,-89 1,-130 l -88,3 0,101 z"
         id="path261"
         inkscape:connector-curvature="0"
         style="fill:#ffffff;fill-opacity:0.20192307" /><path
         class="fil0"
         d="m 21976,12400 c 1,1 3,1 4,3 3,7 45,8 53,8 l 3,-96 c -41,-19 -21,2 -61,-14 l 3,57 c 1,1 10,1 12,1 13,4 5,1 14,5 -3,25 4,35 -28,36 z"
         id="path263"
         inkscape:connector-curvature="0"
         style="fill:#ffffff;fill-opacity:0.20192307" /><path
         class="fil0"
         d="m 22726,11851 -81,-20 -3,54 c 42,17 86,20 84,-34 z"
         id="path265"
         inkscape:connector-curvature="0"
         style="fill:#ffffff;fill-opacity:0.20192307" /><path
         class="fil0"
         d="m 23719,12443 152,7 1,-68 c -8,2 -149,-4 -152,-11 l -1,72 z"
         id="path267"
         inkscape:connector-curvature="0"
         style="fill:#ffffff;fill-opacity:0.20192307" /><path
         class="fil0"
         d="m 14312,8654 c 71,2 73,-85 4,-93 -1,2 -5,87 -4,93 z"
         id="path269"
         inkscape:connector-curvature="0"
         style="fill:#ffffff;fill-opacity:0.20192307" /><path
         class="fil0"
         d="m 14500,9954 c 16,-17 25,-23 42,-39 15,-15 26,-30 40,-45 l -70,2 c -10,34 -5,48 -12,82 z"
         id="path271"
         inkscape:connector-curvature="0"
         style="fill:#ffffff;fill-opacity:0.20192307" /><path
         class="fil0"
         d="m 23338,12230 c 14,10 8,6 30,9 l 4,-72 -36,-6 c -11,37 -4,2 0,37 2,14 2,18 2,32 z"
         id="path273"
         inkscape:connector-curvature="0"
         style="fill:#ffffff;fill-opacity:0.20192307" /><path
         class="fil0"
         d="m 10375,12063 c -55,0 -41,3 -48,16 12,12 -1,11 22,14 l 57,-2 c 17,-4 7,3 14,-12 -6,-17 4,-16 -45,-16 z"
         id="path275"
         inkscape:connector-curvature="0"
         style="fill:#ffffff;fill-opacity:0.20192307" /><path
         class="fil0"
         d="m 23722,11888 1,7 c 27,12 10,11 39,10 l -2,-44 c -22,7 -21,6 -23,31 l -15,-4 z"
         id="path277"
         inkscape:connector-curvature="0"
         style="fill:#ffffff;fill-opacity:0.20192307" /><polygon
         class="fil0"
         points="6751,10754 5816,10436 5816,9955 6724,10295 "
         id="polygon279"
         style="fill:#ffffff;fill-opacity:0.20192307" /><polygon
         class="fil0"
         points="15614,12820 15450,12820 15450,10962 15614,10962 "
         id="polygon281"
         style="fill:#ffffff;fill-opacity:0.20192307" /><polygon
         class="fil0"
         points="16094,12820 15931,12820 15931,10962 16094,10962 "
         id="polygon283"
         style="fill:#ffffff;fill-opacity:0.20192307" /><polygon
         class="fil0"
         points="13863,12825 13699,12825 13699,10967 13863,10967 "
         id="polygon285"
         style="fill:#ffffff;fill-opacity:0.20192307" /><polygon
         class="fil0"
         points="13297,12861 13133,12861 13133,11004 13297,11004 "
         id="polygon287"
         style="fill:#ffffff;fill-opacity:0.20192307" /><polygon
         class="fil0"
         points="6756,11383 5932,11212 5877,10626 6718,10886 "
         id="polygon289"
         style="fill:#ffffff;fill-opacity:0.20192307" /><polygon
         class="fil0"
         points="6431,11642 6009,11604 5948,11314 6383,11396 "
         id="polygon291"
         style="fill:#ffffff;fill-opacity:0.20192307" /><polygon
         class="fil0"
         points="6817,11676 6479,11646 6438,11405 6784,11468 "
         id="polygon293"
         style="fill:#ffffff;fill-opacity:0.20192307" /><polygon
         class="fil0"
         points="12956,12929 12953,12817 16326,12806 16320,12944 16579,12941 16573,13060 16924,13059 16930,13188 12296,13197 12291,13053 12726,13047 12722,12929 "
         id="polygon295"
         style="fill:#ffffff;fill-opacity:0.20192307" /></g></g><g
     inkscape:groupmode="layer"
     id="layer1"
     inkscape:label="Layer"
     transform="translate(0,-15945.556)" /></svg>